<svg width="41" height="17" viewBox="0 0 41 17" fill="none" xmlns="http://www.w3.org/2000/svg">
<path d="M35.3655 16.979C36.4042 17.0039 37.4393 16.8439 38.4238 16.5064C39.1723 16.258 39.8385 15.8037 40.3484 15.194C40.7738 14.6622 41.0041 13.9967 40.9999 13.3114C40.9999 12.462 40.7721 11.8007 40.3163 11.3275C39.8746 10.8636 39.3196 10.5269 38.7081 10.3518C37.9412 10.1427 37.1619 9.98421 36.3749 9.8773C35.8357 9.81064 35.302 9.70451 34.7779 9.55972C34.454 9.45641 34.2939 9.27466 34.2939 9.01447C34.2939 8.75428 34.4408 8.59357 34.7346 8.44052C35.0284 8.28747 35.4879 8.22625 36.1225 8.22625C37.2678 8.22545 38.3949 8.51617 39.4011 9.07186L40.6007 6.42022C39.9588 6.08583 39.2714 5.85048 38.5612 5.72192C37.7514 5.55773 36.9276 5.47507 36.1018 5.47512C35.0826 5.45102 34.0676 5.61436 33.1057 5.95724C32.3664 6.21372 31.7092 6.66852 31.2036 7.27349C30.7751 7.81093 30.5446 8.48353 30.5521 9.17517C30.5521 10.0399 30.7831 10.7114 31.2451 11.1897C31.698 11.6639 32.2686 12.005 32.8966 12.1769C33.659 12.3793 34.4351 12.5239 35.2186 12.6093C35.7473 12.665 36.2711 12.7616 36.7854 12.8982C37.1131 13.0015 37.2788 13.1756 37.2788 13.4224C37.2772 13.5494 37.2369 13.6729 37.1634 13.7757C37.0898 13.8785 36.9867 13.9556 36.8683 13.9963C36.5958 14.1239 36.1369 14.1877 35.4916 14.1877C34.7755 14.1853 34.0624 14.0915 33.3693 13.9083C32.7196 13.7511 32.096 13.4984 31.5181 13.1584L30.3204 15.8368C31.017 16.2292 31.7701 16.5075 32.552 16.6614C33.479 16.8738 34.4265 16.9803 35.3768 16.979H35.3655ZM26.5484 4.26792C27.2091 4.29872 27.8571 4.0761 28.3638 3.64423C28.587 3.44997 28.7649 3.20779 28.8848 2.93517C29.0046 2.66254 29.0634 2.36628 29.0568 2.06778C29.0624 1.78187 29.0028 1.49853 28.8825 1.23996C28.7623 0.981395 28.5847 0.754628 28.3638 0.577432C27.8447 0.173787 27.2014 -0.0295983 26.5484 0.00348365C25.8887 -0.0276737 25.2411 0.191182 24.7312 0.617608C24.5102 0.803571 24.3333 1.03774 24.2136 1.30272C24.094 1.56769 24.0346 1.85666 24.04 2.14814C24.0346 2.43961 24.094 2.72858 24.2136 2.99355C24.3333 3.25853 24.5102 3.4927 24.7312 3.67866C25.2417 4.10376 25.889 4.32184 26.5484 4.29088V4.26792ZM24.4939 17H28.5973V5.53634H24.4939V17ZM18.8726 6.91191V5.53634H14.9593V17H19.0666V11.7331C19.0666 10.7752 19.3177 10.0635 19.8198 9.59798C20.322 9.13245 21.0125 8.89968 21.8913 8.89968C22.2023 8.90396 22.5128 8.92503 22.8216 8.96281V5.34694C22.0373 5.33042 21.2567 5.46011 20.5185 5.72957C19.8813 5.96703 19.3178 6.37246 18.8858 6.90425L18.8726 6.91191ZM6.26848 13.7438C5.95754 13.7542 5.64791 13.6983 5.35955 13.5797C5.07119 13.4611 4.81051 13.2823 4.59433 13.0551C4.1499 12.601 3.92769 11.9678 3.92769 11.1553C3.92769 10.3428 4.14551 9.71724 4.58115 9.27849C4.79871 9.05369 5.05985 8.87725 5.34804 8.76034C5.63622 8.64343 5.94516 8.58859 6.2553 8.59931C6.56574 8.58833 6.87504 8.64303 7.16357 8.75995C7.4521 8.87687 7.71355 9.05345 7.93132 9.27849C8.36697 9.73254 8.58479 10.3581 8.58479 11.1553C8.58479 11.9524 8.36697 12.5902 7.93132 13.0685C7.71486 13.2959 7.45386 13.4747 7.16517 13.5933C6.87649 13.7119 6.56653 13.7678 6.2553 13.7572L6.26848 13.7438ZM8.51511 5.76784V6.7072C7.76184 5.96106 6.73425 5.588 5.43235 5.588C4.47536 5.57451 3.53044 5.80611 2.68479 6.26143C1.86554 6.71181 1.18702 7.38655 0.726284 8.20903C0.23024 9.10783 -0.0200885 10.1251 0.00125973 11.1553C-0.0195793 12.1885 0.230662 13.2087 0.726284 14.1111C1.18572 14.94 1.86409 15.6219 2.68479 16.0798C3.5284 16.5439 4.47491 16.7811 5.43423 16.7685C6.89056 16.7685 7.97966 16.3489 8.70154 15.5096V16.5887H12.402V5.7621L8.51511 5.76784Z" fill="#4C5FEF"/>
</svg>
