<svg width="48" height="48" viewBox="0 0 48 48" fill="none" xmlns="http://www.w3.org/2000/svg">
<path d="M35.3521 0.600065H12.6481C5.99417 0.600065 0.600098 5.99414 0.600098 12.6481V35.3521C0.600098 42.006 5.99417 47.4001 12.6481 47.4001H35.3521C42.006 47.4001 47.4001 42.006 47.4001 35.3521V12.6481C47.4001 5.99414 42.006 0.600065 35.3521 0.600065Z" fill="#4C5FEF"/>
<path d="M24.246 28.5721C23.651 28.592 23.0585 28.4869 22.5066 28.2637C21.9548 28.0404 21.4558 27.704 21.042 27.2761C20.6067 26.7881 20.2724 26.2187 20.0582 25.6009C19.844 24.983 19.7542 24.3289 19.794 23.6761C19.756 23.0336 19.8469 22.39 20.0612 21.7831C20.2755 21.1763 20.609 20.6183 21.042 20.1421C21.4585 19.719 21.9583 19.3869 22.5098 19.1669C23.0614 18.9469 23.6525 18.8438 24.246 18.8641C24.8385 18.8439 25.4287 18.9471 25.9792 19.1671C26.5298 19.3871 27.0286 19.7191 27.444 20.1421C27.8769 20.6183 28.2104 21.1763 28.4247 21.7831C28.639 22.39 28.7299 23.0336 28.692 23.6761C28.7317 24.3289 28.6419 24.983 28.4277 25.6009C28.2135 26.2187 27.8792 26.7881 27.444 27.2761C27.0312 27.7039 26.5333 28.0402 25.9825 28.2635C25.4316 28.4867 24.84 28.5919 24.246 28.5721ZM28.578 13.5361V15.3361C27.126 13.9121 25.162 13.2001 22.686 13.2001C20.8559 13.1744 19.0494 13.6142 17.436 14.4781C15.8665 15.3237 14.5669 16.5942 13.686 18.1441C12.7362 19.8348 12.2576 21.7494 12.3 23.6881C12.2599 25.6323 12.7383 27.5521 13.686 29.2501C14.5662 30.8098 15.8651 32.0921 17.436 32.9521C19.0462 33.8263 20.8539 34.2726 22.686 34.2481C25.486 34.2481 27.566 33.4581 28.926 31.8781V33.9061H36V13.5361H28.578Z" fill="white"/>
</svg>
