<svg width="61" height="43" viewBox="0 0 61 43" fill="none" xmlns="http://www.w3.org/2000/svg">
<rect x="8.07129" y="0.5" width="52.4286" height="35.2857" rx="4.5" fill="white"/>
<path d="M8.57129 5C8.57129 2.79086 10.3622 1 12.5713 1H55.9999C58.209 1 59.9999 2.79086 59.9999 5V9.57143H8.57129V5Z" fill="#505E6B"/>
<circle cx="12.8571" cy="5.28573" r="0.857143" fill="#545454"/>
<ellipse cx="16.2854" cy="5.28573" rx="0.857143" ry="0.857143" fill="#545454"/>
<ellipse cx="19.7142" cy="5.28573" rx="0.857143" ry="0.857143" fill="#545454"/>
<path d="M8.57129 9.57141H59.9999" stroke="#545454" stroke-width="0.8"/>
<rect x="8.07129" y="0.5" width="52.4286" height="35.2857" rx="4.5" stroke="#545454"/>
<g clip-path="url(#clip0_293_3390)">
<rect y="15.5714" width="27.4286" height="27.4286" rx="13.7143" fill="#505E6B"/>
<path d="M18.1141 25.1713C18.1141 27.6014 16.1441 29.5713 13.7141 29.5713C11.284 29.5713 9.31406 27.6014 9.31406 25.1713C9.31406 22.7413 11.284 20.7713 13.7141 20.7713C16.1441 20.7713 18.1141 22.7413 18.1141 25.1713Z" fill="white" stroke="#545454" stroke-width="0.8"/>
<circle cx="13.7144" cy="42.3143" r="9.88571" fill="white" stroke="#545454" stroke-width="0.8"/>
</g>
<rect x="0.5" y="16.0714" width="26.4286" height="26.4286" rx="13.2143" stroke="#545454"/>
<defs>
<clipPath id="clip0_293_3390">
<rect y="15.5714" width="27.4286" height="27.4286" rx="13.7143" fill="white"/>
</clipPath>
</defs>
</svg>
