<svg width="52" height="52" viewBox="0 0 52 52" fill="none" xmlns="http://www.w3.org/2000/svg">
<g filter="url(#filter0_d_271_2779)">
<path d="M36.7052 4H15.2948C10.1614 4 6 8.16142 6 13.2948V34.7052C6 39.8386 10.1614 44 15.2948 44H36.7052C41.8386 44 46 39.8386 46 34.7052V13.2948C46 8.16142 41.8386 4 36.7052 4Z" fill="#FF8022"/>
<path d="M19.1448 39.5259C18.9053 39.5274 18.6685 39.4761 18.4511 39.3756C18.1634 39.2411 17.9201 39.027 17.7501 38.7586C17.58 38.4902 17.4904 38.1789 17.4916 37.8612V29.0519C17.4724 28.8224 17.5011 28.5914 17.5757 28.3736C17.6504 28.1557 17.7694 27.9557 17.9254 27.7862C18.0813 27.6168 18.2707 27.4815 18.4816 27.3889C18.6925 27.2964 18.9202 27.2486 19.1505 27.2486C19.3808 27.2486 19.6086 27.2964 19.8195 27.3889C20.0304 27.4815 20.2198 27.6168 20.3757 27.7862C20.5316 27.9557 20.6507 28.1557 20.7254 28.3736C20.8 28.5914 20.8287 28.8224 20.8095 29.0519V34.3005L35.0638 22.3583L18.5436 14.6473L20.6592 21.5837H26.902C27.3435 21.5837 27.7669 21.7591 28.0791 22.0713C28.3913 22.3835 28.5667 22.8069 28.5667 23.2485C28.5667 23.69 28.3913 24.1134 28.0791 24.4256C27.7669 24.7378 27.3435 24.9132 26.902 24.9132H19.4222C19.0683 24.9136 18.7233 24.802 18.4368 24.5943C18.1502 24.3866 17.9367 24.0936 17.8268 23.7571L14.2662 12.0461C14.1656 11.7362 14.159 11.4035 14.247 11.0897C14.335 10.776 14.5137 10.4953 14.7608 10.2828C15.0078 10.0704 15.3122 9.93565 15.6355 9.89559C15.9589 9.85554 16.2869 9.91194 16.5783 10.0577L38.8557 20.4623C39.1107 20.5799 39.3315 20.7605 39.4974 20.987C39.6632 21.2135 39.7687 21.4786 39.8037 21.7571C39.8372 22.0341 39.8019 22.315 39.7011 22.575C39.6003 22.8351 39.437 23.0664 39.2257 23.2485L20.2199 39.1444C19.9172 39.3934 19.5367 39.5284 19.1448 39.5259Z" fill="white"/>
</g>
<defs>
<filter id="filter0_d_271_2779" x="0" y="0" width="52" height="52" filterUnits="userSpaceOnUse" color-interpolation-filters="sRGB">
<feFlood flood-opacity="0" result="BackgroundImageFix"/>
<feColorMatrix in="SourceAlpha" type="matrix" values="0 0 0 0 0 0 0 0 0 0 0 0 0 0 0 0 0 0 127 0" result="hardAlpha"/>
<feOffset dy="2"/>
<feGaussianBlur stdDeviation="3"/>
<feComposite in2="hardAlpha" operator="out"/>
<feColorMatrix type="matrix" values="0 0 0 0 0.379167 0 0 0 0 0.26826 0 0 0 0 0.165885 0 0 0 0.24 0"/>
<feBlend mode="normal" in2="BackgroundImageFix" result="effect1_dropShadow_271_2779"/>
<feBlend mode="normal" in="SourceGraphic" in2="effect1_dropShadow_271_2779" result="shape"/>
</filter>
</defs>
</svg>
