<svg width="20" height="20" viewBox="0 0 20 20" fill="none" xmlns="http://www.w3.org/2000/svg">
<path d="M15.8984 20H4.10156C1.83996 20 0 18.16 0 15.8984V4.10156C0 1.83996 1.83996 0 4.10156 0H15.8984C18.16 0 20 1.83996 20 4.10156V15.8984C20 18.16 18.16 20 15.8984 20Z" fill="#00C3FF"/>
<path d="M15.8984 0H10V20H15.8984C18.16 20 20 18.16 20 15.8984V4.10156C20 1.83996 18.16 0 15.8984 0Z" fill="#00AAF0"/>
<path d="M6.1583 15.4112C5.97763 15.7242 5.64869 15.8993 5.31091 15.8993C5.14533 15.8993 4.97767 15.8572 4.82427 15.7687C4.35794 15.4995 4.19759 14.901 4.46681 14.4347L4.65888 14.1021H6.91415L6.1583 15.4112Z" fill="white"/>
<path d="M4.31641 13.3205C3.77793 13.3205 3.33984 12.8824 3.33984 12.344C3.33984 11.8055 3.77793 11.3674 4.31641 11.3674H6.23742L8.87234 6.80357L8.15824 5.56669C7.88902 5.10037 8.04934 4.50193 8.51566 4.23267H8.5157C8.98203 3.96345 9.58047 4.12384 9.84969 4.59013L10 4.85048L10.1503 4.59017C10.4196 4.1238 11.0181 3.96349 11.4843 4.23271C11.7102 4.36314 11.8718 4.57373 11.9393 4.82568C12.0068 5.07763 11.9721 5.34084 11.8417 5.56673L8.49269 11.3674H10.6052L11.7328 13.3205H4.31641Z" fill="white"/>
<path d="M15.6835 13.3207H14.8901L15.5332 14.4346C15.8025 14.9009 15.6421 15.4993 15.1758 15.7686C15.0253 15.8554 14.8583 15.8998 14.6891 15.8998C14.6042 15.8998 14.5189 15.8887 14.4347 15.8661C14.1827 15.7986 13.9721 15.637 13.8417 15.4111L10.4509 9.53809L11.5785 7.58496L13.7625 11.3676H15.6835C16.222 11.3676 16.6601 11.8057 16.6601 12.3441C16.6601 12.8826 16.222 13.3207 15.6835 13.3207Z" fill="#F2F2F2"/>
<path d="M10 11.3674V13.3206H11.7328L10.6052 11.3674H10Z" fill="#F2F2F2"/>
<path d="M11.9393 4.82567C11.8718 4.57371 11.7102 4.36309 11.4843 4.2327C11.018 3.96348 10.4196 4.12375 10.1503 4.59016L10 4.85047V8.75672L11.8417 5.56672C11.9721 5.34082 12.0068 5.07766 11.9393 4.82567Z" fill="#F2F2F2"/>
</svg>
