<svg width="14" height="14" viewBox="0 0 14 14" fill="none" xmlns="http://www.w3.org/2000/svg">
<path fill-rule="evenodd" clip-rule="evenodd" d="M12.1831 13.1711C12.4272 13.4152 12.8229 13.4152 13.067 13.1711C13.3111 12.927 13.3111 12.5313 13.067 12.2872L7.67559 6.89583L13.067 1.50444C13.3111 1.26037 13.3111 0.864637 13.067 0.620559C12.8229 0.376482 12.4272 0.376482 12.1831 0.620559L6.79171 6.01195L1.40032 0.620558C1.15624 0.376481 0.76051 0.376481 0.516432 0.620558C0.272355 0.864636 0.272355 1.26036 0.516432 1.50444L5.90782 6.89583L0.516433 12.2872C0.272355 12.5313 0.272355 12.927 0.516433 13.1711C0.760511 13.4152 1.15624 13.4152 1.40032 13.1711L6.79171 7.77972L12.1831 13.1711Z" fill="white"/>
</svg>
