<svg width="15" height="19" viewBox="0 0 15 19" fill="none" xmlns="http://www.w3.org/2000/svg">
<path d="M7.5 18.25C7.03576 18.2477 6.59106 18.0629 6.26197 17.7354C5.93289 17.408 5.74584 16.9642 5.74125 16.5H9.24125C9.2431 16.7339 9.19849 16.9659 9.11 17.1825C8.99685 17.4422 8.82359 17.6712 8.60451 17.8507C8.38544 18.0302 8.12682 18.1551 7.85 18.215H7.80887C7.70722 18.2362 7.60382 18.2479 7.5 18.25ZM14.5 15.625H0.5V13.875L2.25 13V8.1875C2.2039 6.95298 2.48269 5.72799 3.0585 4.635C3.34186 4.13386 3.72825 3.6985 4.19219 3.35763C4.65614 3.01676 5.18708 2.77814 5.75 2.6575V0.75H9.25V2.6575C11.5066 3.19475 12.75 5.15825 12.75 8.1875V13L14.5 13.875V15.625Z" fill="white"/>
</svg>
