<svg width="18" height="18" viewBox="0 0 18 18" fill="none" xmlns="http://www.w3.org/2000/svg">
<path d="M15.2207 9.12366L17.3333 8.2415L16.6888 5.53316L14.3222 5.78707C14.0846 5.38342 13.8046 5.01558 13.4954 4.68681L14.3711 2.5579L12.0013 1.09631L10.5234 2.93551C10.0123 2.80204 9.48173 2.73368 8.95113 2.73043L8.02014 0.666626L5.32808 1.38928L5.64384 3.67444C5.27275 3.90556 4.93095 4.16598 4.62821 4.45569L2.5872 3.61259L1.12561 5.98238L2.88342 7.40491C2.75647 7.88993 2.67834 8.39124 2.66858 8.89579L0.666626 9.72913L1.31116 12.4407L3.54749 12.1998C3.80465 12.649 4.10738 13.0559 4.45894 13.414L3.63538 15.4127L6.00517 16.8743L7.42444 15.11C7.90621 15.2304 8.39775 15.2955 8.89905 15.302L9.73889 17.3333L12.4472 16.6888L12.2031 14.3841C12.623 14.1302 13.0071 13.8372 13.3392 13.5052L15.416 14.3613L16.8776 11.9882L15.0416 10.5039C15.1523 10.0546 15.2142 9.58915 15.2207 9.12366ZM8.99996 12.8541C6.87756 12.8541 5.15881 11.1289 5.15881 8.9967C5.15881 6.8678 6.87756 5.13928 8.99996 5.13928C11.1224 5.13928 12.8411 6.86454 12.8411 8.9967C12.8411 11.1289 11.1191 12.8541 8.99996 12.8541Z" fill="white"/>
</svg>
